<?xml version="1.0" encoding="UTF-8"?> <svg xmlns="http://www.w3.org/2000/svg" width="30" height="30" viewBox="0 0 30 30" fill="none"> <path d="M16.3895 16.0714C16.3895 16.2165 16.3337 16.3449 16.2221 16.4565L8.42079 24.2578C8.30919 24.3694 8.18084 24.4252 8.03575 24.4252C7.89066 24.4252 7.76231 24.3694 7.6507 24.2578L6.81365 23.4208C6.70204 23.3092 6.64624 23.1808 6.64624 23.0357C6.64624 22.8906 6.70204 22.7623 6.81365 22.6507L13.3929 16.0714L6.81365 9.4922C6.70204 9.3806 6.64624 9.25225 6.64624 9.10716C6.64624 8.96207 6.70204 8.83372 6.81365 8.72212L7.6507 7.88506C7.76231 7.77345 7.89066 7.71765 8.03575 7.71765C8.18084 7.71765 8.30919 7.77345 8.42079 7.88506L16.2221 15.6864C16.3337 15.798 16.3895 15.9264 16.3895 16.0714ZM22.8181 16.0714C22.8181 16.2165 22.7623 16.3449 22.6507 16.4565L14.8494 24.2578C14.7378 24.3694 14.6094 24.4252 14.4643 24.4252C14.3192 24.4252 14.1909 24.3694 14.0793 24.2578L13.2422 23.4208C13.1306 23.3092 13.0748 23.1808 13.0748 23.0357C13.0748 22.8906 13.1306 22.7623 13.2422 22.6507L19.8215 16.0714L13.2422 9.4922C13.1306 9.3806 13.0748 9.25225 13.0748 9.10716C13.0748 8.96207 13.1306 8.83372 13.2422 8.72212L14.0793 7.88506C14.1909 7.77345 14.3192 7.71765 14.4643 7.71765C14.6094 7.71765 14.7378 7.77345 14.8494 7.88506L22.6507 15.6864C22.7623 15.798 22.8181 15.9264 22.8181 16.0714Z" fill="#DFDFDF"></path> </svg> 